<?xml version="1.0" standalone="no"?>
<!DOCTYPE svg PUBLIC "-//W3C//DTD SVG 20010904//EN"
 "http://www.w3.org/TR/2001/REC-SVG-20010904/DTD/svg10.dtd">
<svg version="1.0" xmlns="http://www.w3.org/2000/svg"
 width="500.000000pt" height="500.000000pt" viewBox="0 0 500.000000 500.000000"
 preserveAspectRatio="xMidYMid meet">

<g transform="translate(0.000000,500.000000) scale(0.100000,-0.100000)"
fill="#000000" stroke="none">
<path d="M2377 4599 c-208 -17 -455 -76 -659 -158 -338 -134 -628 -350 -868
-643 -276 -337 -436 -709 -481 -1119 -18 -168 -6 -467 25 -617 154 -731 691
-1339 1381 -1566 250 -82 419 -115 635 -123 264 -10 489 24 759 114 628 210
1068 594 1301 1137 214 498 238 985 75 1481 -91 276 -218 507 -400 724 -351
418 -937 723 -1480 770 -132 12 -146 12 -288 0z m48 -83 c17 -4 89 -15 160
-25 269 -40 482 -108 750 -243 227 -114 415 -250 592 -430 163 -165 264 -304
319 -438 14 -34 31 -72 38 -84 24 -38 76 -241 95 -366 l8 -55 8 53 c4 29 11
50 15 45 15 -15 48 -147 65 -251 11 -74 15 -166 15 -321 l-1 -217 -72 71 c-81
81 -155 124 -273 156 -68 19 -94 20 -213 15 -75 -3 -145 -6 -155 -6 -21 -1
-147 -49 -156 -59 -3 -3 -12 -7 -20 -9 -8 -2 -20 -12 -28 -23 -8 -11 -20 -18
-28 -15 -8 3 -13 2 -12 -2 1 -4 -39 -48 -90 -98 -50 -50 -88 -95 -84 -99 4 -5
2 -5 -5 -1 -6 3 -15 2 -18 -4 -5 -8 -11 -8 -20 0 -9 8 -14 5 -18 -11 -3 -11
-10 -19 -15 -16 -4 4 -20 0 -33 -7 -53 -27 -74 -11 -42 33 9 13 11 22 5 20
-19 -7 -232 -217 -232 -230 0 -7 11 -32 25 -55 19 -32 38 -49 73 -64 67 -30
88 -54 113 -129 12 -36 30 -85 40 -108 10 -24 15 -43 11 -43 -4 0 -25 22 -46
49 -55 73 -107 116 -188 157 -109 54 -157 93 -198 156 l-37 57 -27 -28 c-14
-15 -26 -35 -26 -44 0 -9 -4 -17 -9 -17 -5 0 -19 -30 -31 -66 -31 -92 -28
-178 7 -247 29 -57 83 -133 97 -134 10 -2 67 -85 61 -91 -2 -2 -27 12 -57 31
-99 63 -183 183 -208 298 -28 125 5 310 67 377 13 15 22 21 18 15 -4 -9 1 -12
17 -10 13 1 25 5 28 9 3 4 39 24 80 43 41 20 104 53 140 72 l65 35 -100 -7
c-118 -7 -163 -25 -305 -120 -120 -79 -270 -214 -376 -336 -125 -145 -179
-242 -220 -394 -14 -55 -18 -104 -18 -225 0 -139 3 -163 26 -232 33 -99 74
-163 151 -234 75 -70 178 -120 267 -132 l65 -8 -40 -12 c-99 -29 -302 -7 -463
50 -212 74 -356 177 -447 319 -31 47 -67 84 -126 130 -127 98 -159 131 -159
167 0 39 28 66 89 88 272 99 321 133 631 439 271 267 385 357 692 545 318 195
400 264 509 429 175 266 216 653 103 989 -135 406 -418 704 -814 858 -55 21
-100 43 -100 47 0 5 8 6 18 3 9 -2 31 -7 47 -10z m-130 -246 c-3 -5 12 -12 34
-16 24 -4 38 -11 34 -17 -3 -6 -1 -7 5 -3 11 7 79 -27 134 -66 16 -10 32 -16
38 -13 6 4 7 -1 3 -11 -4 -12 -3 -15 5 -10 14 8 33 -33 24 -49 -3 -5 5 -1 19
10 13 11 21 16 17 11 -8 -10 15 -36 54 -61 15 -9 25 -21 22 -26 -3 -5 3 -12
13 -16 21 -8 43 -35 37 -44 -6 -10 26 -20 38 -12 6 3 8 1 4 -5 -3 -6 -2 -13 4
-17 5 -3 10 -11 10 -16 0 -6 -5 -7 -12 -3 -7 4 -8 3 -4 -5 4 -6 11 -9 16 -6 9
6 69 -66 87 -104 7 -14 17 -33 22 -41 10 -15 42 -85 62 -137 40 -102 50 -220
34 -363 -3 -25 -7 -64 -9 -86 -2 -23 -8 -50 -14 -60 -7 -13 -9 10 -5 81 7 120
-9 248 -44 359 -55 177 -192 392 -322 507 -33 29 -57 57 -54 62 4 6 1 7 -6 2
-7 -4 -22 1 -34 13 -26 24 -158 103 -205 122 -24 9 -30 15 -20 21 17 11 20 11
13 -1z m-695 -344 c41 -43 101 -96 133 -117 31 -22 57 -42 57 -45 0 -2 -27 14
-61 36 -72 50 -191 167 -237 236 l-34 49 33 -40 c19 -22 67 -75 109 -119z
m-571 -148 c3 44 55 -76 76 -175 3 -18 11 -35 16 -38 5 -4 9 -19 9 -34 0 -15
11 -49 25 -75 14 -26 25 -52 25 -59 0 -11 13 -29 70 -95 11 -13 20 -28 20 -33
0 -5 4 -9 9 -9 5 0 26 -16 47 -35 21 -19 44 -35 50 -35 7 0 17 -6 21 -14 8
-14 86 -62 158 -96 61 -29 189 -74 191 -68 1 2 10 -4 20 -13 11 -9 54 -28 97
-43 42 -16 77 -32 77 -37 0 -5 8 -9 18 -9 9 0 33 -10 52 -21 19 -12 59 -35 89
-51 29 -16 59 -35 66 -41 7 -7 23 -19 36 -27 34 -22 139 -123 133 -129 -2 -3
6 -11 18 -19 21 -12 19 -13 -25 -8 -71 8 -138 41 -250 124 -133 97 -227 143
-391 193 -164 49 -232 76 -356 140 -195 102 -302 209 -357 359 -45 122 -37
273 21 355 l20 29 7 -24 c4 -14 7 -19 8 -12z m811 -44 c0 -2 -9 0 -20 6 -11 6
-20 13 -20 16 0 2 9 0 20 -6 11 -6 20 -13 20 -16z m120 -54 c8 -5 11 -10 5
-10 -5 0 -17 5 -25 10 -8 5 -10 10 -5 10 6 0 17 -5 25 -10z m240 -90 c8 -5 11
-10 5 -10 -5 0 -17 5 -25 10 -8 5 -10 10 -5 10 6 0 17 -5 25 -10z m176 -76
c18 -14 18 -14 -6 -3 -31 14 -36 19 -24 19 6 0 19 -7 30 -16z m134 -103 c56
-56 140 -185 128 -196 -2 -2 -19 26 -38 63 -33 64 -111 153 -175 201 -24 18
-25 20 -5 10 14 -7 54 -42 90 -78z m497 -173 c-3 -7 -5 -2 -5 12 0 14 2 19 5
13 2 -7 2 -19 0 -25z m-50 -200 c-3 -7 -5 -2 -5 12 0 14 2 19 5 13 2 -7 2 -19
0 -25z m-726 -1397 c-5 -9 -6 -22 -3 -30 3 -9 0 -11 -8 -6 -9 6 -10 1 -5 -16
7 -23 7 -24 -9 -4 -15 19 -15 18 -5 -14 9 -24 9 -54 0 -115 -48 -345 80 -626
348 -760 99 -50 132 -58 291 -65 l145 -6 -75 -25 c-64 -21 -93 -25 -195 -25
-108 1 -129 4 -208 32 -48 17 -112 46 -143 64 -81 49 -176 154 -218 241 -55
114 -69 190 -63 343 4 111 9 142 34 210 32 89 78 175 94 175 6 0 8 4 5 8 -3 5
1 9 9 9 9 0 11 -5 6 -16z m59 -186 c5 -11 14 -39 20 -61 16 -63 67 -171 117
-246 99 -150 274 -250 464 -265 76 -6 108 -20 122 -56 6 -15 -3 -23 -46 -42
-170 -78 -368 -34 -517 115 -125 124 -189 269 -198 447 -2 55 -1 123 3 150 l8
48 9 -35 c5 -19 13 -44 18 -55z m595 -175 c3 -6 -1 -7 -9 -4 -18 7 -21 14 -7
14 6 0 13 -4 16 -10z"/>
<path d="M3283 3810 c100 -237 134 -303 205 -391 32 -41 67 -87 77 -102 13
-20 21 -25 29 -17 7 7 17 2 34 -17 71 -81 181 -282 206 -376 21 -79 25 -85 60
-91 17 -3 46 -20 64 -36 18 -17 37 -30 42 -30 5 0 17 24 27 53 25 73 25 294
-1 386 -41 149 -126 281 -241 373 -97 78 -277 162 -249 116 4 -6 -2 -6 -14 1
-11 6 -29 11 -39 10 -10 0 -13 -3 -5 -6 19 -7 14 -19 -13 -31 -24 -11 -30 -7
-26 20 0 4 -6 5 -14 2 -15 -6 -22 11 -7 19 4 2 2 2 -5 1 -7 -2 -35 25 -64 59
-82 96 -83 98 -66 57z m217 -205 c14 -19 14 -19 -2 -6 -10 7 -18 18 -18 24 0
6 1 8 3 6 1 -2 9 -13 17 -24z"/>
<path d="M3517 3709 c7 -7 15 -10 18 -7 3 3 -2 9 -12 12 -14 6 -15 5 -6 -5z"/>
<path d="M3617 2776 c-10 -26 -8 -76 3 -76 15 0 24 49 13 72 -9 20 -10 20 -16
4z"/>
<path d="M1756 1142 c-4 -24 -5 -46 -2 -49 12 -12 17 6 14 48 l-3 44 -9 -43z"/>
<path d="M1650 1083 c0 -24 23 -57 37 -52 5 2 -1 19 -14 38 -18 27 -23 30 -23
14z"/>
<path d="M2646 4032 c-3 -4 4 -9 15 -9 23 -2 25 3 4 10 -8 4 -16 3 -19 -1z"/>
</g>
</svg>
